<?xml version="1.0" encoding="utf-8"?>
<!-- Generator: Adobe Illustrator 28.0.0, SVG Export Plug-In . SVG Version: 6.00 Build 0)  -->
<svg version="1.1" id="图层_1" xmlns="http://www.w3.org/2000/svg" xmlns:xlink="http://www.w3.org/1999/xlink" x="0px" y="0px"
	 viewBox="0 0 420.4 364.1" style="enable-background:new 0 0 420.4 364.1;" xml:space="preserve">
<style type="text/css">
	.st0{fill:none;stroke:#28A8A0;stroke-width:17.7578;stroke-miterlimit:19.1418;}
	.st1{fill:none;stroke:#28A8A0;stroke-width:8.866;stroke-miterlimit:19.1418;}
	.st2{fill:none;stroke:#28A8A0;stroke-width:8.8631;stroke-miterlimit:19.1418;}
	.st3{fill:none;stroke:#28A8A0;stroke-width:12.6613;stroke-miterlimit:19.1418;}
	.st4{fill:none;stroke:#28A8A0;stroke-width:10;stroke-miterlimit:19.1418;}
	.st5{fill:none;stroke:#56B5AD;stroke-width:10;stroke-miterlimit:15.1179;}
	.st6{fill:none;stroke:#2E8555;stroke-width:17.7575;stroke-miterlimit:26.8464;}
	.st7{fill:none;stroke:#2E8555;stroke-width:17.3414;stroke-miterlimit:26.8464;}
	.st8{fill:none;stroke:#D45D20;stroke-width:17.7575;stroke-miterlimit:26.8464;}
	.st9{fill:none;stroke:#D45D20;stroke-width:12;stroke-miterlimit:26.8464;}
	.st10{fill:none;stroke:#56B5AD;stroke-width:17.7;stroke-miterlimit:15.1179;}
</style>
<g>
	<path class="st0" d="M45.5,354.4H157"/>
	<circle class="st1" cx="179.7" cy="248.1" r="22.9"/>
	<circle class="st2" cx="29.2" cy="251.1" r="22.9"/>
	<g>
		<path class="st3" d="M96.4,349.1v-101"/>
		<circle class="st4" cx="96.4" cy="192.9" r="33.6"/>
		<path class="st3" d="M34.4,287.1l62,15.5l51.3-14.5l9.4-11.7"/>
	</g>
	<circle class="st5" cx="388" cy="256.6" r="26.1"/>
	<g>
		<path class="st6" d="M147.6,354.4h142.1"/>
		<path class="st7" d="M218.7,361.5v-254"/>
		<g>
			<circle class="st8" cx="218.7" cy="48.4" r="38.5"/>
			<path class="st6" d="M129.9,255l35.5,35.5h53.3"/>
			<path class="st6" d="M307.4,255l-35.5,35.5h-53.3"/>
		</g>
		<circle class="st9" cx="298.9" cy="114.7" r="26.3"/>
		<circle class="st9" cx="138.4" cy="114.7" r="26.3"/>
		<circle class="st9" cx="122.2" cy="208.1" r="33.1"/>
		<circle class="st9" cx="312.4" cy="208.1" r="33.1"/>
		<path class="st6" d="M147.6,157.3l71,17.8l71-17.8"/>
	</g>
	<path class="st10" d="M288.5,354.4h70.8"/>
	<g transform="translate(-.36252)">
		<path class="st5" d="M322.9,354.4v-25.7"/>
		<path class="st5" d="M320,333.5l43.8-50.8"/>
		<path class="st5" d="M324.3,333.9l-23.8-21.7"/>
	</g>
	<circle class="st5" cx="272.3" cy="288.9" r="28.4"/>
</g>
</svg>
