<?xml version="1.0" encoding="utf-8"?>
<!-- Generator: Adobe Illustrator 28.0.0, SVG Export Plug-In . SVG Version: 6.00 Build 0)  -->
<svg version="1.1" id="图层_1" xmlns="http://www.w3.org/2000/svg" xmlns:xlink="http://www.w3.org/1999/xlink" x="0px" y="0px"
	 viewBox="0 0 141.7 141.7" style="enable-background:new 0 0 141.7 141.7;" xml:space="preserve">
<style type="text/css">
	.st0{fill:#FFFFFF;}
	.st1{fill:#100C07;}
	.st2{fill:#E76219;}
	.st3{fill:#27983A;}
	.st4{fill:#88542C;}
	.st5{fill:#CE3F1A;}
</style>
<g>
	<path class="st0" d="M37.6,12.4c-4.7,0-9.4,0-14.2,0c-1.8,0-2.9,0-3,2.4c-0.5,10.7,1.9,20.1,10.5,27.1c2.3,1.8,1.9,2.7,0.3,4.7
		C18,63.9,16.9,87.2,28.3,105c11.8,18.4,32.8,27.2,54.3,22.6c21.3-4.6,38.4-24.7,39.6-45.7c1.5-25-14.5-46-35.3-52.4
		c-3.6-1.1-4.8-2.4-4.8-6.1C82,14.5,73.8,9.9,66,14c-1.2,0.6-2.3,2-4,1.2C54.2,11.4,45.9,12.6,37.6,12.4z"/>
	<path class="st1" d="M37.6,12.4c8.2,0.2,16.6-1,24.4,2.8c1.7,0.8,2.7-0.6,4-1.2c7.8-4.1,16,0.5,16.1,9.4c0,3.8,1.2,5,4.8,6.1
		c20.8,6.3,36.8,27.4,35.3,52.4c-1.3,21-18.3,41.1-39.6,45.7c-21.5,4.6-42.6-4.2-54.3-22.6C16.9,87.2,18,63.9,31.2,46.6
		c1.6-2,1.9-2.9-0.3-4.7c-8.6-7-11-16.4-10.4-27c0.1-2.5,1.3-2.5,3-2.4C28.2,12.5,32.9,12.4,37.6,12.4z M67.5,29.1
		c-5.3-6.4-12-9.5-20.4-9c-4.4,0.2-8.8,0-13.1,0c-6.4,0-6.9,0.8-4.7,7.1c3.1,8.8,10,12.6,18.5,14.4C30.1,52.9,23.4,74.4,31.2,94.5
		c7.2,18.5,27.3,29.5,47.7,26.2c20.6-3.4,36.8-22.9,36-43.4c-1-23-17.5-40.8-39.6-42.4c-0.1-3.7-0.1-7.4-0.4-11.1
		c-0.2-2-1.2-3.7-3.7-3.6c-2.3,0.1-3,1.8-3.3,3.5C67.5,25.5,67.6,27.3,67.5,29.1z"/>
	<path class="st2" d="M75.3,34.9c22.1,1.6,38.7,19.4,39.6,42.4c0.9,20.5-15.4,40.1-36,43.4C58.4,124,38.4,113,31.2,94.5
		c-7.8-20.1-1.1-41.6,16.5-53c6.5,0,13.1,0.1,19.6,0.1c0.1,0.5,0.1,1,0.1,1.5c0,2.8,0.5,5.5,4,5.4c3.5-0.2,3.6-3.1,3.6-5.8
		C75.2,40.1,75.3,37.5,75.3,34.9z M64.5,80.4c-0.1,2.7,2,4.6,4.9,4.8c3.1,0.1,5.7-1.8,5.7-5.2c0-3.3-1.7-5.3-5.5-5.1
		C66.3,74.9,64.6,76.4,64.5,80.4z M89.7,64.9c-1-2.7-2.3-4.8-5.8-4.7c-3.4,0.1-5.3,2.2-5.2,5.1c0.1,3.1,2.5,5.5,5.8,5.2
		C87.4,70.3,89.2,67.9,89.7,64.9z M85,99.4c2.1,0.3,4.2-1.8,4.5-4.6c0.3-3.2-2.2-5.6-5.3-5.8c-3-0.2-5.3,2.2-5.5,5.1
		S80.4,99.1,85,99.4z M98.7,74.8c-3.7,0-5.6,2.4-5.5,5.5c0.1,2.9,2.9,5,5.7,4.9c2.6-0.1,4.7-1.9,4.7-5.2
		C103.7,76.6,102.1,74.9,98.7,74.8z"/>
	<path class="st3" d="M67.4,41.7c-6.5,0-13.1-0.1-19.6-0.1c-8.5-1.8-15.4-5.6-18.5-14.4c-2.2-6.3-1.7-7.1,4.7-7.1
		c4.4,0,8.8,0.2,13.1,0c8.4-0.4,15.1,2.6,20.4,9C67.5,33.3,67.4,37.5,67.4,41.7z"/>
	<path class="st4" d="M67.4,41.7c0-4.2,0.1-8.4,0.1-12.6c0.1-1.8,0-3.6,0.3-5.3c0.3-1.7,1.1-3.4,3.3-3.5c2.5-0.1,3.6,1.6,3.7,3.6
		c0.4,3.7,0.3,7.4,0.4,11.1c0,2.6-0.1,5.2-0.1,7.8c0,2.7-0.1,5.6-3.6,5.8c-3.6,0.2-4-2.5-4-5.4C67.6,42.6,67.5,42.1,67.4,41.7z"/>
	<path class="st5" d="M64.5,80.4c0.1-4.1,1.8-5.5,5.2-5.6c3.8-0.2,5.5,1.8,5.5,5.1c0,3.5-2.6,5.4-5.7,5.2
		C66.5,85.1,64.4,83.2,64.5,80.4z"/>
	<path class="st5" d="M89.7,64.9c-0.6,3-2.3,5.4-5.2,5.6c-3.3,0.3-5.7-2.2-5.8-5.2c-0.1-2.9,1.8-5,5.2-5.1
		C87.4,60.1,88.7,62.2,89.7,64.9z"/>
	<path class="st5" d="M85,99.4c-4.6-0.3-6.5-2.4-6.3-5.4c0.2-2.9,2.5-5.3,5.5-5.1c3.1,0.2,5.6,2.6,5.3,5.8
		C89.2,97.6,87.1,99.7,85,99.4z"/>
	<path class="st5" d="M98.7,74.8c3.4,0,5,1.7,5,5.1c0,3.2-2.1,5.1-4.7,5.2c-2.9,0.1-5.6-1.9-5.7-4.9C93.1,77.3,95,74.8,98.7,74.8z"
		/>
</g>
</svg>
