<?xml version="1.0" encoding="utf-8"?>
<!-- Generator: Adobe Illustrator 28.0.0, SVG Export Plug-In . SVG Version: 6.00 Build 0)  -->
<svg version="1.1" id="图层_1" xmlns="http://www.w3.org/2000/svg" xmlns:xlink="http://www.w3.org/1999/xlink" x="0px" y="0px"
	 viewBox="0 0 119.8 136.7" style="enable-background:new 0 0 119.8 136.7;" xml:space="preserve">
<style type="text/css">
	.st0{fill:#FFFFFF;}
	.st1{fill:#100C07;}
	.st2{fill:#E76219;}
	.st3{fill:#27983A;}
	.st4{fill:#88542C;}
	.st5{fill:#CE3F1A;}
</style>
<g>
	<path class="st0" d="M26.7,9.9c-4.7,0-9.4,0-14.2,0c-1.8,0-2.9,0-3,2.4C9,23,11.4,32.4,20,39.4c2.3,1.8,1.9,2.7,0.3,4.7
		C7.1,61.4,6,84.7,17.4,102.5c11.8,18.4,32.8,27.2,54.3,22.6c21.3-4.6,38.4-24.7,39.6-45.7c1.5-25-14.5-46-35.3-52.4
		c-3.6-1.1-4.8-2.4-4.8-6.1c-0.1-8.9-8.3-13.5-16.1-9.4c-1.2,0.6-2.3,2-4,1.2C43.3,8.9,35,10.1,26.7,9.9z"/>
	<path class="st1" d="M26.7,9.9c8.2,0.2,16.6-1,24.4,2.8c1.7,0.8,2.7-0.6,4-1.2c7.8-4.1,16,0.5,16.1,9.4c0,3.8,1.2,5,4.8,6.1
		c20.8,6.3,36.8,27.4,35.3,52.4c-1.3,21-18.3,41.1-39.6,45.7c-21.5,4.6-42.6-4.2-54.3-22.6C6,84.7,7.1,61.4,20.3,44.1
		c1.6-2,1.9-2.9-0.3-4.7c-8.6-7-11-16.4-10.4-27c0.1-2.5,1.3-2.5,3-2.4C17.3,10,22,9.9,26.7,9.9z M56.6,26.6c-5.3-6.4-12-9.5-20.4-9
		c-4.4,0.2-8.8,0-13.1,0c-6.4,0-6.9,0.8-4.7,7.1c3.1,8.8,10,12.6,18.5,14.4C19.2,50.4,12.5,71.9,20.3,92
		c7.2,18.5,27.3,29.5,47.7,26.2c20.6-3.4,36.8-22.9,36-43.4c-1-23-17.5-40.8-39.6-42.4c-0.1-3.7-0.1-7.4-0.4-11.1
		c-0.2-2-1.2-3.7-3.7-3.6c-2.3,0.1-3,1.8-3.3,3.5C56.6,23,56.7,24.8,56.6,26.6z"/>
	<path class="st2" d="M64.4,32.4C86.5,34,103.1,51.8,104,74.8c0.9,20.5-15.4,40.1-36,43.4c-20.5,3.3-40.5-7.7-47.7-26.2
		c-7.8-20.1-1.1-41.6,16.5-53c6.5,0,13.1,0.1,19.6,0.1c0.1,0.5,0.1,1,0.1,1.5c0,2.8,0.5,5.5,4,5.4c3.5-0.2,3.6-3.1,3.6-5.8
		C64.3,37.6,64.4,35,64.4,32.4z M53.6,77.9c-0.1,2.7,2,4.6,4.9,4.8c3.1,0.1,5.7-1.8,5.7-5.2c0-3.3-1.7-5.3-5.5-5.1
		C55.4,72.4,53.7,73.9,53.6,77.9z M78.8,62.4c-1-2.7-2.3-4.8-5.8-4.7c-3.4,0.1-5.3,2.2-5.2,5.1c0.1,3.1,2.5,5.5,5.8,5.2
		C76.5,67.8,78.3,65.4,78.8,62.4z M74.1,96.9c2.1,0.3,4.2-1.8,4.5-4.6c0.3-3.2-2.2-5.6-5.3-5.8c-3-0.2-5.3,2.2-5.5,5.1
		C67.6,94.5,69.5,96.6,74.1,96.9z M87.8,72.3c-3.7,0-5.6,2.4-5.5,5.5c0.1,2.9,2.9,5,5.7,4.9c2.6-0.1,4.7-1.9,4.7-5.2
		C92.8,74.1,91.2,72.4,87.8,72.3z"/>
	<path class="st3" d="M56.5,39.2c-6.5,0-13.1-0.1-19.6-0.1c-8.5-1.8-15.4-5.6-18.5-14.4c-2.2-6.3-1.7-7.1,4.7-7.1
		c4.4,0,8.8,0.2,13.1,0c8.4-0.4,15.1,2.6,20.4,9C56.6,30.8,56.5,35,56.5,39.2z"/>
	<path class="st4" d="M56.5,39.2c0-4.2,0.1-8.4,0.1-12.6c0.1-1.8,0-3.6,0.3-5.3c0.3-1.7,1.1-3.4,3.3-3.5c2.5-0.1,3.6,1.6,3.7,3.6
		c0.4,3.7,0.3,7.4,0.4,11.1c0,2.6-0.1,5.2-0.1,7.8c0,2.7-0.1,5.6-3.6,5.8c-3.6,0.2-4-2.5-4-5.4C56.7,40.1,56.6,39.6,56.5,39.2z"/>
	<path class="st5" d="M53.6,77.9c0.1-4.1,1.8-5.5,5.2-5.6c3.8-0.2,5.5,1.8,5.5,5.1c0,3.5-2.6,5.4-5.7,5.2
		C55.6,82.6,53.5,80.7,53.6,77.9z"/>
	<path class="st5" d="M78.8,62.4c-0.6,3-2.3,5.4-5.2,5.6c-3.3,0.3-5.7-2.2-5.8-5.2c-0.1-2.9,1.8-5,5.2-5.1
		C76.5,57.6,77.8,59.7,78.8,62.4z"/>
	<path class="st5" d="M74.1,96.9c-4.6-0.3-6.5-2.4-6.3-5.4c0.2-2.9,2.5-5.3,5.5-5.1c3.1,0.2,5.6,2.6,5.3,5.8
		C78.3,95.1,76.2,97.2,74.1,96.9z"/>
	<path class="st5" d="M87.8,72.3c3.4,0,5,1.7,5,5.1c0,3.2-2.1,5.1-4.7,5.2c-2.9,0.1-5.6-1.9-5.7-4.9C82.2,74.8,84.1,72.3,87.8,72.3z
		"/>
</g>
</svg>
